<?xml version="1.0" encoding="UTF-8"?>
<!DOCTYPE svg PUBLIC "-//W3C//DTD SVG 1.1//EN" "http://www.w3.org/Graphics/SVG/1.1/DTD/svg11.dtd">
<!-- Creator: CorelDRAW 2020 (64 Bit) -->
<svg xmlns="http://www.w3.org/2000/svg" xml:space="preserve" width="69px" height="69px" version="1.1" style="shape-rendering:geometricPrecision; text-rendering:geometricPrecision; image-rendering:optimizeQuality; fill-rule:evenodd; clip-rule:evenodd"
viewBox="0 0 17.34 17.34"
 xmlns:xlink="http://www.w3.org/1999/xlink"
 xmlns:xodm="http://www.corel.com/coreldraw/odm/2003">
 <defs>
  <style type="text/css">
   <![CDATA[
    .fil0 {fill:#FEFEFE}
    .fil1 {fill:#0092B8}
   ]]>
  </style>
 </defs>
 <g id="Camada_x0020_1">
  <metadata id="CorelCorpID_0Corel-Layer"/>
  <g id="_2739636965520">
   <rect class="fil0" width="17.34" height="17.34" rx="3.96" ry="3.96"/>
   <path class="fil1" d="M4.49 5.86c-0.49,0.24 -1.02,0.04 -1.02,0.79l0 5.21c0,0.56 0.27,0.58 1.1,0.79 0.32,0.08 1.33,0.31 1.62,0.31 -0.15,0.22 -0.31,0.42 -0.47,0.64 -0.17,0.22 -0.32,0.43 -0.48,0.66l-0.71 0.95c-0.07,0.09 -0.2,0.23 -0.23,0.35 0.41,0 0.91,0.08 1.05,-0.08 0.07,-0.09 0.07,-0.19 0.21,-0.19l6.23 0c0.23,0 0.05,0.27 0.47,0.28 0.26,0 0.53,-0.01 0.79,-0.01 -0.05,-0.16 -1.67,-2.27 -1.89,-2.6 0.42,0 1.87,-0.38 2.32,-0.51 0.3,-0.09 0.4,-0.22 0.4,-0.59l0 -5.21c0,-0.75 -0.54,-0.55 -1.03,-0.79 0,-1.34 0.23,-2.65 -0.89,-3.2 -0.23,-0.12 -0.51,-0.17 -0.78,-0.25 -0.58,-0.17 -2.03,-0.65 -2.55,-0.65 -0.32,0 -0.57,0.11 -0.84,0.18l-1.6 0.46c-0.61,0.18 -1.54,0.38 -1.66,1.42 -0.06,0.62 -0.04,1.36 -0.04,2.04zm1.12 -1.97l2.63 -0.61 0 1.29 -2.63 0.61 0 -1.29zm6.13 0l-2.62 -0.61 0 1.29 2.62 0.61 0 -1.29zm-6.08 5.64c0.4,0 0.72,0.33 0.72,0.72 0,0.4 -0.32,0.72 -0.72,0.72 -0.4,0 -0.72,-0.32 -0.72,-0.72 0,-0.39 0.32,-0.72 0.72,-0.72zm6.01 0c0.4,0 0.72,0.33 0.72,0.72 0,0.4 -0.32,0.72 -0.72,0.72 -0.39,0 -0.72,-0.32 -0.72,-0.72 0,-0.39 0.33,-0.72 0.72,-0.72zm-5.63 4.96l5.26 0 -0.53 -0.73 -4.19 0 -0.54 0.73z"/>
  </g>
 </g>
</svg>
