<?xml version="1.0" encoding="UTF-8"?>
<!DOCTYPE svg PUBLIC "-//W3C//DTD SVG 1.1//EN" "http://www.w3.org/Graphics/SVG/1.1/DTD/svg11.dtd">
<!-- Creator: CorelDRAW 2020 (64 Bit) -->
<svg xmlns="http://www.w3.org/2000/svg" xml:space="preserve" width="273px" height="100px" version="1.1" style="shape-rendering:geometricPrecision; text-rendering:geometricPrecision; image-rendering:optimizeQuality; fill-rule:evenodd; clip-rule:evenodd"
viewBox="0 0 272.7 99.7"
 xmlns:xlink="http://www.w3.org/1999/xlink"
 xmlns:xodm="http://www.corel.com/coreldraw/odm/2003">
 <defs>
  <style type="text/css">
   <![CDATA[
    .fil10 {fill:url(#id0)}
    .fil1 {fill:url(#id1)}
    .fil5 {fill:url(#id2)}
    .fil6 {fill:url(#id3)}
    .fil8 {fill:url(#id4)}
    .fil9 {fill:url(#id5)}
    .fil11 {fill:url(#id6)}
    .fil7 {fill:url(#id7)}
    .fil12 {fill:url(#id8)}
    .fil13 {fill:url(#id9)}
    .fil2 {fill:url(#id10)}
    .fil4 {fill:url(#id11)}
    .fil3 {fill:url(#id12)}
    .fil0 {fill:url(#id13)}
    .fil14 {fill:url(#id14)}
   ]]>
  </style>
  <linearGradient id="id0" gradientUnits="userSpaceOnUse" x1="141.24" y1="91.73" x2="140.91" y2="8.05">
   <stop offset="0" style="stop-opacity:1; stop-color:#19255D"/>
   <stop offset="1" style="stop-opacity:1; stop-color:#2A438F"/>
  </linearGradient>
  <linearGradient id="id1" gradientUnits="userSpaceOnUse" xlink:href="#id0" x1="141.24" y1="91.73" x2="140.91" y2="8.05">
  </linearGradient>
  <linearGradient id="id2" gradientUnits="userSpaceOnUse" xlink:href="#id0" x1="141.24" y1="91.73" x2="140.91" y2="8.05">
  </linearGradient>
  <linearGradient id="id3" gradientUnits="userSpaceOnUse" xlink:href="#id0" x1="141.24" y1="91.73" x2="140.91" y2="8.05">
  </linearGradient>
  <linearGradient id="id4" gradientUnits="userSpaceOnUse" xlink:href="#id0" x1="141.24" y1="91.73" x2="140.92" y2="8.05">
  </linearGradient>
  <linearGradient id="id5" gradientUnits="userSpaceOnUse" xlink:href="#id0" x1="141.24" y1="91.73" x2="140.91" y2="8.05">
  </linearGradient>
  <linearGradient id="id6" gradientUnits="userSpaceOnUse" xlink:href="#id0" x1="141.24" y1="91.73" x2="140.91" y2="8.05">
  </linearGradient>
  <linearGradient id="id7" gradientUnits="userSpaceOnUse" xlink:href="#id0" x1="141.24" y1="91.73" x2="140.91" y2="8.05">
  </linearGradient>
  <linearGradient id="id8" gradientUnits="userSpaceOnUse" xlink:href="#id0" x1="141.24" y1="91.73" x2="140.92" y2="8.05">
  </linearGradient>
  <linearGradient id="id9" gradientUnits="userSpaceOnUse" xlink:href="#id0" x1="141.24" y1="91.73" x2="140.91" y2="8.05">
  </linearGradient>
  <linearGradient id="id10" gradientUnits="userSpaceOnUse" xlink:href="#id0" x1="141.24" y1="91.73" x2="140.91" y2="8.05">
  </linearGradient>
  <linearGradient id="id11" gradientUnits="userSpaceOnUse" xlink:href="#id0" x1="141.24" y1="91.73" x2="140.91" y2="8.05">
  </linearGradient>
  <linearGradient id="id12" gradientUnits="userSpaceOnUse" xlink:href="#id0" x1="141.24" y1="91.73" x2="140.91" y2="8.05">
  </linearGradient>
  <linearGradient id="id13" gradientUnits="userSpaceOnUse" xlink:href="#id0" x1="141.24" y1="91.73" x2="140.91" y2="8.05">
  </linearGradient>
  <linearGradient id="id14" gradientUnits="userSpaceOnUse" xlink:href="#id0" x1="141.24" y1="91.73" x2="140.91" y2="8.05">
  </linearGradient>
 </defs>
 <g id="Camada_x0020_1">
  <metadata id="CorelCorpID_0Corel-Layer"/>
  <g id="_2603814700496">
   <path class="fil0" d="M63.11 32.74c0.04,16.67 -2.55,40.97 9.03,53.4 5.63,6.04 13.55,11.67 25.04,12.62 21.87,1.81 38.49,-15.54 38.37,-36.61l-0.05 -29.96c-0.02,-3.75 0.36,-6.31 -1.6,-8.92 -1.62,-2.16 -3.81,-3.54 -7.29,-3.3 -9.68,0.64 -7.69,13.9 -7.71,24.75 -0.02,9.77 1.6,24.3 -5,31.4 -3.41,3.67 -7.76,6.51 -15.07,6.19 -13.01,-0.56 -19.01,-11.22 -18.97,-23.97l0.02 -22.88c0,-7.41 0.3,-14.35 -7.19,-15.4 -9.95,-1.39 -9.59,8.09 -9.58,12.68z"/>
   <path class="fil1" d="M14.71 19.42c-3.3,0.33 -7.83,-0.62 -10.53,0.94 -5.99,3.46 -5.18,12.63 0.13,14.84 3.09,1.28 7.11,0.59 10.55,0.85 0.19,14.98 -2.21,32.24 4.3,44.77 4.67,8.98 15.96,18.98 31.02,17.54 7.03,-0.67 11.2,-7.16 7.14,-13.75 -4.02,-6.56 -11.23,-0.16 -18.45,-6.06 -4.66,-3.8 -7.02,-8.98 -7.05,-17.48 -0.02,-8.38 -0.01,-16.75 -0.07,-25.13 9.29,0.04 21.37,2.51 21.44,-8.11 0.07,-10.7 -12.18,-8.34 -21.25,-8.33 -1.06,-8.51 1.91,-19.22 -8.29,-19.49 -10.98,-0.3 -8.16,10.54 -8.94,19.41z"/>
   <path class="fil2" d="M179.16 18.99c-16.93,1.68 -29.57,13.62 -31.65,30.18 -1.05,8.38 -0.35,21.55 -0.36,30.42 -0.01,4.33 -0.9,10.62 1.19,14.25 2.76,4.79 15.72,8.51 15.58,-7.71 -0.04,-5.08 0.02,-10.17 0.01,-15.26 -0.02,-10.94 -2.69,-29.89 12.14,-34.49 4.64,-1.44 9.19,0.45 12.65,-2.57 5.19,-4.53 4.82,-16.26 -9.56,-14.82z"/>
   <path class="fil3" d="M219.24 19.15c-0.94,1.68 -0.1,0.89 -0.99,2 -0.78,0.97 -3.85,1.9 -6.05,3.47 -7.84,5.59 -3.11,4.86 -7.67,3.56 -1.4,1.25 -2.13,2.48 -3.24,4.06 -1.98,2.84 -0.97,2.71 0.42,4.85l-3.52 10.16 -3.21 0.12 -0.25 7.6 2.16 1.19 -0.64 10.38 -3 0.8 0.04 7.17c3.51,0.83 3.28,-0.57 3.55,3.41 0.16,2.38 0.42,4.71 0.4,7.12l-2.45 1.05 0.38 7.41 3.36 -0.02c0.81,6.67 0.99,5.14 2.73,5.26 1.35,-3.14 -5.41,-32.21 -0.19,-51.47 9.53,-35.16 46.32,-30.49 58.21,-9.89 1.44,2.5 3.18,7.11 4.12,10.05 6.48,20.2 1.49,49.41 3.24,52.27 2.49,-0.37 1.83,-2.13 2.18,-4.86l2.99 -0.55 0.32 -7.07 -2.06 -0.85c-0.12,-0.06 -0.31,-0.16 -0.45,-0.24l0.11 -9.27c0.15,-0.09 0.39,-0.31 0.46,-0.19 0.07,0.12 0.33,-0.14 0.43,-0.19 2.59,-1.24 2.16,1.07 1.82,-7.7 -3.79,-1.98 -2.41,1.69 -3.92,-10.98 0.43,-0.36 0.37,-0.29 1.11,-0.77 0.87,-0.57 0.56,-0.24 1.39,-0.87 -0.23,-1.4 -0.61,-3.95 -0.92,-5.09 -1.4,-5.12 -1.04,0.28 -3.53,-3.02 0,0 -3.24,-8.73 -3.45,-9.32 0.08,-0.14 0.25,-0.46 0.3,-0.37 0.01,0.03 1.77,-1.41 0.12,-4.13 -0.93,-1.54 -1.55,-2.59 -2.61,-4 -2.67,-0.23 -1.47,1.52 -4.09,-0.72l-7.24 -5.91c-3.65,-2.47 -0.77,-1.04 -2.03,-3.32 -1.31,-0.56 -5.24,-2.14 -6.52,-2 -2.75,0.3 0.73,0.76 -3.27,0.88 -0.86,0.03 -2.78,-0.29 -3.84,-0.33 -4.39,-0.19 -4.01,0.74 -7.22,-0.71 -0.13,-0.05 -0.25,-0.15 -0.37,-0.21 -2.08,-0.87 -4.68,0.58 -7.11,1.24z"/>
   <path class="fil4" d="M215.15 97.81c0.86,-2.15 0.28,-3.87 0.03,-6.24l1.56 -1.47c0.62,-1.1 0.48,-1.17 0.32,-2.81 -0.38,-3.97 -0.35,-2.71 -2.57,-3.82l-0.79 -7.16c0.2,-3.6 0.04,-0.89 0.8,-1.94 0.38,-0.52 1.63,-0.89 1.08,-4.64 -0.58,-3.94 -0.04,-1.05 -2.3,-3.22 -0.01,-1.37 0.05,-4.4 0.33,-5.67 1.05,-4.79 1.14,0.5 2.42,-4.06 0.71,-2.5 0.18,-3.39 -0.09,-4.32 -0.73,-2.56 1.08,-6.18 1.3,-5.61 0.12,0.29 1.76,-0.16 3.13,-2.66 1.78,-3.23 -1.29,-2.13 1.78,-4.72 2.2,-1.86 2.9,-0.71 5.45,-1.15 4.49,-0.77 1.64,-2.1 5.12,-2.16 2.08,-0.04 3.58,1.13 5.29,1.73 8.58,3.02 4.45,4.24 6.02,7.04 0.11,0.18 1.57,2.15 1.62,2.2 0.83,0.75 0.09,0.16 0.97,0.64 0.15,0.09 0.66,0.31 0.81,0.37 1.09,0.52 1.35,0.97 2.02,3.49 0.74,2.77 -0.01,2 -0.4,3.65 -1.17,5.02 2.73,6.32 2.73,6.33 0.11,0.23 1.41,5.02 -0.65,7.86 -0.94,1.29 -1.14,2.65 -0.86,5.21 0.58,2.51 -0.08,0.69 2.2,2.18l-0.06 8.18c-1.84,1.07 1.79,-1.04 -1.08,0.46l-1.13 0.63c-0.47,9.23 0.35,4.57 1.45,6.83 1.37,2.79 -1.56,4.93 1.91,6.02 3.03,-3.6 3.57,-47.45 -6.6,-58.03 -14.79,-15.39 -32.97,-6.83 -35.79,16.9 -1.4,11.77 0.12,25.09 1.62,37.03 0.28,2.21 0.11,3 2.36,2.93z"/>
   <path class="fil5" d="M205.89 39.07l7.98 4.15c0.95,-2.19 2.33,-3.1 3.16,-5.13 -1.05,-0.9 -2.16,-1.65 -3.23,-2.64 -1.74,-1.6 -1.6,-2.18 -3.82,-2.72 -1.65,2.01 -3.13,4.02 -4.09,6.34z"/>
   <path class="fil6" d="M236.25 32.17l5.87 2.43 3.48 -8.36 -6.69 -2.28c-1.44,1.99 -2.15,5.9 -2.66,8.21z"/>
   <path class="fil7" d="M248.21 39.16c0.84,1.94 2.02,3.3 2.98,5.6 2.61,-0.93 5.16,-2.87 7.77,-3.87l-4.31 -6.75c-2.44,1.81 -4.57,3.27 -6.44,5.02z"/>
   <path class="fil8" d="M254.86 53.06l0.96 6.76 8.17 -1.35c0,-2.53 -0.7,-5.61 -1.71,-7.42l-7.42 2.01z"/>
   <path class="fil9" d="M220.31 25.18l2.73 8.21 5.79 -1.51c-0.25,-2.92 -0.53,-6.72 -1.6,-8.66l-6.92 1.96z"/>
   <path class="fil10" d="M209.6 57.92l0.77 -6.35 -8.06 -2.27c-0.85,9.12 -3.25,7.52 7.29,8.62z"/>
   <polygon class="fil11" points="202.07,85.14 202.72,92.45 210.77,91.57 209.89,84.69 "/>
   <polygon class="fil12" points="257.07,69.48 257.17,76.01 265.24,76.28 265.14,68.84 "/>
   <polygon class="fil13" points="200.91,74.45 208.96,74.4 208.61,67.61 201,67.22 "/>
   <polygon class="fil14" points="256.48,92.97 264.43,93.91 264.21,86.64 257.05,86.33 "/>
  </g>
 </g>
</svg>
