<?xml version="1.0" encoding="UTF-8"?>
<!DOCTYPE svg PUBLIC "-//W3C//DTD SVG 1.1//EN" "http://www.w3.org/Graphics/SVG/1.1/DTD/svg11.dtd">
<!-- Creator: CorelDRAW 2020 (64 Bit) -->
<svg xmlns="http://www.w3.org/2000/svg" xml:space="preserve" width="274px" height="69px" version="1.1" style="shape-rendering:geometricPrecision; text-rendering:geometricPrecision; image-rendering:optimizeQuality; fill-rule:evenodd; clip-rule:evenodd"
viewBox="0 0 273.8 68.87"
 xmlns:xlink="http://www.w3.org/1999/xlink"
 xmlns:xodm="http://www.corel.com/coreldraw/odm/2003">
 <defs>
  <style type="text/css">
   <![CDATA[
    .fil0 {fill:#FEFEFE}
    .fil1 {fill:#0092B8}
    .fil2 {fill:#FEFEFE;fill-rule:nonzero}
   ]]>
  </style>
 </defs>
 <g id="Camada_x0020_1">
  <metadata id="CorelCorpID_0Corel-Layer"/>
  <g id="_2739639959824">
   <rect class="fil0" width="68.87" height="68.87" rx="15.74" ry="15.74"/>
   <path class="fil1" d="M17.84 23.29c-1.95,0.93 -4.07,0.14 -4.07,3.13l0 20.67c0,2.24 1.1,2.31 4.38,3.13 1.28,0.32 5.26,1.25 6.42,1.25 -0.58,0.88 -1.21,1.67 -1.85,2.53 -0.67,0.89 -1.26,1.73 -1.93,2.62l-2.79 3.77c-0.29,0.38 -0.82,0.94 -0.94,1.41 1.64,0 3.63,0.29 4.19,-0.34 0.28,-0.33 0.29,-0.75 0.82,-0.75l24.74 0c0.93,0 0.19,1.08 1.86,1.11 1.03,0.02 2.11,-0.02 3.15,-0.02 -0.18,-0.65 -6.64,-9.02 -7.52,-10.33 1.67,0 7.44,-1.51 9.24,-2.03 1.17,-0.34 1.56,-0.88 1.56,-2.35l0 -20.67c0,-2.99 -2.12,-2.2 -4.07,-3.13 0,-5.35 0.92,-10.56 -3.54,-12.74 -0.92,-0.45 -2.02,-0.68 -3.09,-0.99 -2.3,-0.66 -8.05,-2.56 -10.12,-2.56 -1.26,0 -2.28,0.41 -3.36,0.72l-6.33 1.81c-2.43,0.71 -6.14,1.52 -6.58,5.63 -0.27,2.45 -0.17,5.42 -0.17,8.13zm4.46 -7.85l10.42 -2.42 0 5.14 -10.42 2.42 0 -5.14zm24.33 0l-10.43 -2.42 0 5.14 10.43 2.42 0 -5.14zm-24.16 22.42c1.58,0 2.86,1.28 2.86,2.86 0,1.58 -1.28,2.86 -2.86,2.86 -1.58,0 -2.86,-1.28 -2.86,-2.86 0,-1.58 1.28,-2.86 2.86,-2.86zm23.89 0c1.58,0 2.86,1.28 2.86,2.86 0,1.58 -1.28,2.86 -2.86,2.86 -1.58,0 -2.86,-1.28 -2.86,-2.86 0,-1.58 1.28,-2.86 2.86,-2.86zm-22.38 19.69l20.9 0 -2.11 -2.9 -16.65 0 -2.14 2.9z"/>
   <polygon class="fil2" points="102.7,19.18 102.49,28.31 96.08,28.57 94.44,48.96 85.36,49.44 85.41,29.04 79,29.38 79.25,19.22 "/>
   <path id="1" class="fil2" d="M129.54 19.66c-0.65,5.04 -1.2,10.07 -1.66,15.07 -0.46,5 -0.9,10.03 -1.32,15.09l-8.82 0.64 0.39 -3.31c-0.29,0.33 -0.62,0.62 -1,0.86 -0.38,0.25 -0.78,0.44 -1.22,0.6 -0.42,0.14 -0.87,0.25 -1.33,0.32 -0.46,0.07 -0.9,0.09 -1.31,0.07 -0.98,-0.01 -1.9,-0.2 -2.75,-0.57 -0.86,-0.36 -1.66,-0.85 -2.37,-1.46 -0.72,-0.61 -1.37,-1.32 -1.94,-2.13 -0.57,-0.81 -1.06,-1.66 -1.45,-2.56 -0.4,-0.9 -0.7,-1.81 -0.91,-2.74 -0.2,-0.94 -0.3,-1.84 -0.3,-2.71 0,-1.29 0.02,-2.63 0.07,-4.01 0.05,-1.39 0.14,-2.78 0.26,-4.17 0.14,-1.39 0.31,-2.76 0.51,-4.13 0.21,-1.36 0.47,-2.67 0.79,-3.91 1.74,0.08 3.51,0.16 5.27,0.23 1.76,0.07 3.52,0.1 5.27,0.07 -0.33,1.24 -0.66,2.49 -0.98,3.75 -0.33,1.25 -0.61,2.52 -0.87,3.79 -0.26,1.27 -0.47,2.54 -0.62,3.82 -0.16,1.27 -0.24,2.56 -0.24,3.87 0,0.3 0.02,0.73 0.04,1.29 0.03,0.56 0.11,1.11 0.23,1.65 0.12,0.55 0.31,1.03 0.55,1.43 0.26,0.42 0.61,0.62 1.07,0.62 0.55,0 1.04,-0.23 1.47,-0.7 0.42,-0.47 0.81,-1.09 1.14,-1.88 0.33,-0.79 0.61,-1.7 0.85,-2.74 0.23,-1.02 0.43,-2.1 0.6,-3.23 0.16,-1.13 0.29,-2.27 0.4,-3.41 0.1,-1.15 0.17,-2.23 0.22,-3.24 0.05,-1.01 0.09,-1.92 0.11,-2.73 0.02,-0.8 0.03,-1.42 0.03,-1.87 0,-0.28 0,-0.56 -0.02,-0.83 -0.01,-0.28 -0.03,-0.56 -0.06,-0.84 0.93,0.03 1.85,0.05 2.77,0.06 0.92,0.02 1.85,0.03 2.78,0.03 0.71,0 1.44,-0.01 2.16,-0.02 0.72,-0.01 1.45,-0.03 2.19,-0.07z"/>
   <path id="2" class="fil2" d="M156.04 29.21c0,1.12 -0.1,2.13 -0.29,3.04 -0.2,0.91 -0.5,1.75 -0.92,2.51 -0.41,0.76 -0.95,1.47 -1.61,2.11 -0.66,0.65 -1.46,1.26 -2.39,1.85l5.12 9.12 -9.68 1.9 -3.31 -9.17 -2.67 0.08 -0.39 8.96 -9.25 0c0.08,-3.27 0.14,-6.53 0.21,-9.77 0.06,-3.24 0.14,-6.5 0.23,-9.77 0.02,-1.65 0.05,-3.28 0.08,-4.9 0.03,-1.63 0.08,-3.26 0.17,-4.91 1,-0.37 1.99,-0.68 2.97,-0.93 0.98,-0.24 1.95,-0.43 2.94,-0.57 0.98,-0.13 1.98,-0.23 2.99,-0.28 1.01,-0.05 2.04,-0.07 3.1,-0.07 1.64,0 3.23,0.23 4.75,0.68 1.53,0.45 2.88,1.13 4.06,2.03 1.17,0.9 2.11,2.03 2.82,3.38 0.72,1.35 1.07,2.92 1.07,4.71zm-9.64 0.69c0,-0.61 -0.08,-1.16 -0.25,-1.66 -0.16,-0.5 -0.41,-0.94 -0.73,-1.3 -0.32,-0.36 -0.72,-0.65 -1.2,-0.86 -0.48,-0.21 -1.05,-0.31 -1.69,-0.31 -0.29,0 -0.57,0.01 -0.84,0.05 -0.27,0.04 -0.54,0.09 -0.79,0.16l-0.35 8.01 0.52 0c0.61,0 1.24,-0.09 1.88,-0.24 0.63,-0.16 1.21,-0.4 1.72,-0.73 0.51,-0.33 0.93,-0.75 1.25,-1.27 0.32,-0.52 0.48,-1.14 0.48,-1.85z"/>
   <path id="3" class="fil2" d="M184.22 39.07c0,1.61 -0.01,3.22 -0.05,4.8 -0.03,1.59 -0.09,3.18 -0.16,4.79l-12.4 -0.21c0.44,-2.55 0.81,-5.08 1.13,-7.61 0.31,-2.53 0.47,-5.09 0.47,-7.67 0,-0.19 -0.01,-0.49 -0.02,-0.9 -0.02,-0.42 -0.05,-0.89 -0.08,-1.41 -0.05,-0.52 -0.11,-1.07 -0.19,-1.62 -0.08,-0.55 -0.19,-1.06 -0.32,-1.51 -0.14,-0.46 -0.3,-0.84 -0.5,-1.13 -0.19,-0.3 -0.43,-0.44 -0.7,-0.44 -0.48,0 -0.89,0.14 -1.23,0.42 -0.34,0.29 -0.62,0.66 -0.85,1.11 -0.22,0.46 -0.39,0.96 -0.52,1.52 -0.13,0.56 -0.23,1.12 -0.29,1.68 -0.07,0.55 -0.11,1.08 -0.13,1.58 -0.02,0.49 -0.03,0.9 -0.03,1.21 -0.08,2.55 -0.14,5.06 -0.17,7.57 -0.05,2.5 -0.1,5.03 -0.18,7.58l-10.97 0.47c0.29,-5.06 0.57,-10.09 0.83,-15.1 0.26,-5 0.48,-10.04 0.63,-15.1l10.16 -0.52 -0.09 3.44c0.4,-0.48 0.84,-0.94 1.31,-1.37 0.46,-0.43 0.96,-0.8 1.49,-1.11 0.53,-0.31 1.09,-0.55 1.69,-0.73 0.59,-0.18 1.22,-0.27 1.88,-0.27 1.22,0 2.29,0.2 3.21,0.6 0.91,0.4 1.7,0.95 2.36,1.63 0.66,0.69 1.21,1.51 1.66,2.45 0.44,0.94 0.8,1.94 1.07,3 0.27,1.06 0.49,2.17 0.63,3.32 0.14,1.16 0.24,2.29 0.29,3.42 0.05,1.11 0.07,2.19 0.07,3.24 0,1.05 0,2 0,2.87z"/>
   <path id="4" class="fil2" d="M221.99 48.1l-10.68 1.37 -1.29 -4.86 -4.9 0 -1.08 4.86 -10.97 -1.07 8.56 -28.65 11.96 -0.61 8.4 28.96zm-12.75 -10.07l-1.63 -7.49 -1.59 7.49 3.22 0z"/>
   <path id="5" class="fil2" d="M247.5 30.12c0,1.38 -0.21,2.62 -0.62,3.7 -0.42,1.07 -0.99,2.02 -1.71,2.82 -0.73,0.81 -1.58,1.49 -2.56,2.05 -0.97,0.55 -2.01,1 -3.12,1.35 -1.11,0.36 -2.27,0.61 -3.46,0.78 -1.19,0.16 -2.35,0.25 -3.51,0.27l0 9.16 -10.02 0c0,-1.64 0.01,-3.22 0.01,-4.77 0.01,-1.55 0.02,-3.09 0.03,-4.62 0,-1.53 0.01,-3.06 0.02,-4.61 0,-1.55 0.01,-3.15 0.03,-4.81 0.03,-1.74 0.03,-3.49 0.02,-5.24 -0.02,-1.75 0.02,-3.52 0.11,-5.29 1.84,-0.55 3.67,-0.96 5.51,-1.23 1.83,-0.27 3.72,-0.41 5.67,-0.41 1.11,0 2.21,0.09 3.32,0.27 1.11,0.18 2.16,0.46 3.17,0.85 1.01,0.38 1.95,0.87 2.82,1.45 0.87,0.58 1.61,1.28 2.25,2.08 0.63,0.8 1.13,1.72 1.49,2.75 0.37,1.04 0.55,2.18 0.55,3.45zm-9.55 0.72c0,-0.93 -0.29,-1.66 -0.85,-2.18 -0.57,-0.52 -1.3,-0.78 -2.2,-0.78 -0.31,0 -0.62,0.02 -0.94,0.07 -0.33,0.05 -0.63,0.11 -0.92,0.18l-0.25 6.29c0.2,0.03 0.39,0.04 0.58,0.04 0.18,0 0.37,0 0.58,0 0.51,0 1.01,-0.09 1.49,-0.26 0.48,-0.17 0.91,-0.42 1.28,-0.74 0.37,-0.33 0.67,-0.7 0.89,-1.14 0.23,-0.43 0.34,-0.93 0.34,-1.48z"/>
   <path id="6" class="fil2" d="M273.8 30.12c0,1.38 -0.22,2.62 -0.63,3.7 -0.42,1.07 -0.99,2.02 -1.71,2.82 -0.73,0.81 -1.58,1.49 -2.56,2.05 -0.97,0.55 -2.01,1 -3.12,1.35 -1.11,0.36 -2.27,0.61 -3.46,0.78 -1.19,0.16 -2.35,0.25 -3.51,0.27l0 9.16 -10.02 0c0,-1.64 0.01,-3.22 0.01,-4.77 0.01,-1.55 0.02,-3.09 0.03,-4.62 0,-1.53 0.01,-3.06 0.02,-4.61 0,-1.55 0.01,-3.15 0.03,-4.81 0.03,-1.74 0.03,-3.49 0.02,-5.24 -0.01,-1.75 0.02,-3.52 0.11,-5.29 1.84,-0.55 3.67,-0.96 5.51,-1.23 1.83,-0.27 3.72,-0.41 5.67,-0.41 1.11,0 2.21,0.09 3.32,0.27 1.11,0.18 2.16,0.46 3.17,0.85 1.01,0.38 1.95,0.87 2.82,1.45 0.87,0.58 1.61,1.28 2.25,2.08 0.63,0.8 1.13,1.72 1.49,2.75 0.37,1.04 0.56,2.18 0.56,3.45zm-9.56 0.72c0,-0.93 -0.29,-1.66 -0.85,-2.18 -0.57,-0.52 -1.3,-0.78 -2.2,-0.78 -0.31,0 -0.62,0.02 -0.94,0.07 -0.33,0.05 -0.63,0.11 -0.91,0.18l-0.26 6.29c0.2,0.03 0.39,0.04 0.58,0.04 0.18,0 0.37,0 0.58,0 0.51,0 1.01,-0.09 1.49,-0.26 0.48,-0.17 0.91,-0.42 1.28,-0.74 0.37,-0.33 0.67,-0.7 0.89,-1.14 0.23,-0.43 0.34,-0.93 0.34,-1.48z"/>
  </g>
 </g>
</svg>
