<?xml version="1.0" encoding="UTF-8"?>
<!DOCTYPE svg PUBLIC "-//W3C//DTD SVG 1.1//EN" "http://www.w3.org/Graphics/SVG/1.1/DTD/svg11.dtd">
<!-- Creator: CorelDRAW 2020 (64 Bit) -->
<svg xmlns="http://www.w3.org/2000/svg" xml:space="preserve" width="100px" height="125px" version="1.1" style="shape-rendering:geometricPrecision; text-rendering:geometricPrecision; image-rendering:optimizeQuality; fill-rule:evenodd; clip-rule:evenodd"
viewBox="0 0 84.81 106.4"
 xmlns:xlink="http://www.w3.org/1999/xlink"
 xmlns:xodm="http://www.corel.com/coreldraw/odm/2003">
 <defs>
  <style type="text/css">
   <![CDATA[
    .fil0 {fill:#FEFEFE}
   ]]>
  </style>
 </defs>
 <g id="Camada_x0020_1">
  <metadata id="CorelCorpID_0Corel-Layer"/>
  <path class="fil0" d="M66.47 75.59c-7.92,2.97 -11.45,6.65 -23.39,8.42 -26.13,3.88 -26,-16.79 -18.04,-34.91 2.78,-6.36 6.46,-11.85 10.24,-17.45 0.26,-0.38 0.51,-0.8 0.83,-1.17l1.25 -1.12c-1.6,4.48 -7.36,12.68 -5.35,20.62 2.92,11.56 19.36,4.19 26.73,-1.3 8.28,-6.17 13.42,-11.33 19.6,-20.95 2.68,-4.19 7.46,-13.84 6.29,-20.7 -1.45,-8.48 -10.28,-8.12 -17.52,-5 -6.68,2.89 -11.19,6.7 -16.23,10.68 -14.47,11.42 -28.39,26.73 -37.79,42.52 -5.6,9.4 -15.02,26.08 -12.74,40.08 1.26,7.76 7.23,11.78 15.97,11 12.6,-1.14 26.78,-10.6 36.07,-17.82l7.19 -6.06c1.37,-1.03 6.09,-5.73 6.89,-6.84z"/>
 </g>
</svg>
