<?xml version="1.0" encoding="UTF-8"?>
<!DOCTYPE svg PUBLIC "-//W3C//DTD SVG 1.1//EN" "http://www.w3.org/Graphics/SVG/1.1/DTD/svg11.dtd">
<!-- Creator: CorelDRAW 2020 (64 Bit) -->
<svg xmlns="http://www.w3.org/2000/svg" xml:space="preserve" width="1000px" height="355px" version="1.1" style="shape-rendering:geometricPrecision; text-rendering:geometricPrecision; image-rendering:optimizeQuality; fill-rule:evenodd; clip-rule:evenodd"
viewBox="0 0 149.56 53.07"
 xmlns:xlink="http://www.w3.org/1999/xlink"
 xmlns:xodm="http://www.corel.com/coreldraw/odm/2003">
 <defs>
  <style type="text/css">
   <![CDATA[
    .str1 {stroke:#04A4C0;stroke-width:0.44;stroke-miterlimit:22.9256}
    .str0 {stroke:#04A4C0;stroke-width:0.02;stroke-miterlimit:22.9256}
    .fil2 {fill:none}
    .fil0 {fill:#04A4C0}
    .fil1 {fill:#FEFEFE;fill-rule:nonzero}
   ]]>
  </style>
 </defs>
 <g id="Camada_x0020_1">
  <metadata id="CorelCorpID_0Corel-Layer"/>
  <g id="_2712424675632">
   <path class="fil0" d="M7.88 45.15l-0.67 -1.89 0.02 -0.04c-0.24,-0.23 -0.46,-1.18 -0.56,-1.58 -1.08,-3.15 -1.53,-7.81 -1.05,-11.38 0.75,-5.65 2.77,-9.36 5.9,-13.42 0.66,-0.86 2.41,-2.7 3.15,-3.35l1.68 -1.52c0.62,-0.49 1.2,-0.94 1.85,-1.44 0.62,-0.46 1.21,-0.88 1.88,-1.32 0.57,-0.39 1.49,-0.87 1.95,-1.28 -0.61,-0.08 -1.13,0.55 -1.61,0.76 -0.55,0.24 -0.71,-0.64 -1.66,0.3l0.59 0.28c-0.13,0.19 0,0.04 -0.18,0.2l-1.31 0.88c-0.56,0.17 -0.56,-0.72 -1.67,0.36l0.71 0.29c-0.24,0.28 -0.48,0.42 -0.74,0.62 -0.27,0.21 -0.49,0.43 -0.75,0.6 -0.48,0.03 -0.75,-0.29 -1.03,-0.18 -0.09,0.03 -0.24,0.17 -0.35,0.26 -0.02,0.01 -0.18,0.13 -0.18,0.14l-0.21 0.27 0.82 0.26c-0.09,0.12 -1.5,1.43 -1.53,1.44 -0.66,0.22 -0.72,-0.94 -1.88,0.51 0.14,0.06 0.34,0.14 0.51,0.19 0.41,0.12 0.33,0.07 0.48,0.23 -0.43,0.43 -1.17,1.15 -1.46,1.64l-1.27 -0.33c-0.24,0.2 -0.64,0.64 -0.84,0.88 0.17,0.13 0.37,0.16 0.6,0.22 0.22,0.06 0.45,0.1 0.63,0.24 -0.18,0.31 -0.46,0.65 -0.68,0.96 -0.23,0.32 -0.48,0.76 -0.73,1l-1.58 -0.38c-0.18,0.42 -0.52,0.67 -0.7,1.08 0.42,0.24 1.17,0.2 1.58,0.47l-1.19 2.34 -2.02 -0.42 -0.7 1.27 2.1 0.47 -0.91 2.79 -2.52 -0.38c-0.22,0.32 -0.52,1.13 -0.56,1.56l2.7 0.4c0.02,0.2 -0.36,2.43 -0.39,3.36l-3.37 -0.37 -0.36 1.88 3.65 0.35c0.15,0.9 0.09,2.05 0.22,2.99 0.23,1.78 1.27,6.8 2.01,7.76l1.63 0.03z"/>
   <path class="fil0" d="M20.6 41.6c0.39,0.51 1.95,2.81 2.22,3.39 0.48,0.03 0.65,-0.06 1.68,-0.15 -0.5,-0.24 -3.26,-4.76 -3.34,-4.94 -0.32,-0.43 -0.72,-1.34 -1.03,-1.92 -0.37,-0.69 -0.6,-1.35 -0.92,-2.04l3.59 0.32c-0.13,-0.39 -0.37,-0.69 -0.55,-1.02 -0.32,-0.56 -0.16,-0.59 -0.91,-0.66 -0.9,-0.09 -1.88,-0.19 -2.77,-0.35 -0.31,-0.88 -0.72,-2.07 -0.86,-3.04l2.74 0.41c-0.46,-2.28 -1.07,-1.3 -3.01,-1.88 -0.21,-0.45 -0.31,-2.08 -0.34,-2.68l2.13 0.41 -0.16 -1.07c-0.07,-0.18 0,-0.06 -0.09,-0.17l-1.92 -0.46 0.11 -2.33 1.68 0.37 0.02 -1.11 -1.52 -0.4 0.4 -2.08 1.35 0.35 0.16 -1.01 -1.17 -0.33c0,-0.48 0.44,-1.33 0.56,-1.82l1.15 0.32 0.27 -0.91 -0.98 -0.3c0.08,-0.36 0.57,-1.34 0.78,-1.59l0.92 0.27c0.15,-0.32 0.29,-0.49 0.35,-0.81l-0.81 -0.28c0.21,-0.54 0.63,-0.97 0.85,-1.42l0.9 0.28c0.11,-0.31 0.25,-0.4 0.37,-0.7l-0.72 -0.29c0.17,-0.35 0.71,-1.01 0.97,-1.28l0.78 0.3c0.13,-0.24 0.32,-0.37 0.43,-0.68 -0.27,-0.05 -0.49,-0.11 -0.66,-0.3 0.25,-0.25 0.89,-0.91 0.94,-1.17 -0.53,0.04 -2.47,2.47 -2.78,2.88 -2.66,3.46 -4.53,7.14 -5.16,11.82 -0.67,5.03 0.44,9.88 2.39,14.3 0.62,1.42 1.31,2.5 1.96,3.77z"/>
   <path class="fil0" d="M7.28 40.72c12.22,0.46 0,0 12.22,0.46l-1.05 -1.9 -11.62 -0.72c0.05,0.52 0.24,1.7 0.45,2.16z"/>
   <path class="fil0 str0" d="M16.76 35.65l-0.54 -1.62c-0.04,0 -0.07,-0.04 -0.08,-0.02l-2.3 -0.32c-1.03,-0.11 -6.86,-0.87 -7.35,-0.84 -0.08,0.25 -0.12,1.28 -0.06,1.56 0.07,0.37 0.41,0.24 1.31,0.34 0.99,0.1 1.98,0.21 2.97,0.3 2.02,0.18 4.04,0.42 6.05,0.6z"/>
   <path class="fil0" d="M6.78 29.5l8.62 1.33 -0.19 -1.45c-0.8,-0.22 -7.59,-1.39 -8.15,-1.35l-0.28 1.47z"/>
   <path class="fil0" d="M0 38.21l0.05 2.24 4.99 0.16 -0.35 -2.29c-4.69,-0.11 -2.32,-0.1 -4.69,-0.11z"/>
   <path class="fil0" d="M7.87 25.18c1.22,0.24 2.42,0.5 3.6,0.73 0.81,0.16 2.96,0.69 3.6,0.67l0.03 -1.26 -6.77 -1.43 -0.46 1.29z"/>
   <path class="fil0" d="M21.24 39.8c0.02,0.01 0.04,0.01 0.05,0.04l0.51 0.7c0.72,1.06 0.21,0.72 2.76,0.84l1.87 0.07c0.24,-0.05 0.1,0.02 0.23,-0.11 -0.31,-0.22 -0.57,-0.64 -0.85,-0.98 -0.44,-0.53 -0.35,-0.68 -1.17,-0.72 -1.17,-0.06 -2.35,-0.18 -3.53,-0.21l0.13 0.37z"/>
   <path class="fil0" d="M9.45 21.53l5.94 1.43 0.23 -1.14 -5.59 -1.41c-0.19,0.39 -0.45,0.71 -0.58,1.12z"/>
   <path class="fil0" d="M11.34 18.38c0.86,0.23 4.27,1.33 4.91,1.32 0.1,-0.32 0.26,-0.58 0.26,-0.93l-4.57 -1.35c-0.17,0.35 -0.45,0.6 -0.6,0.96z"/>
   <path class="fil0" d="M13.43 15.64c0.02,0.01 0.04,0.01 0.05,0.04 0.01,0.02 0.04,0.02 0.06,0.03l1.83 0.6c0.49,0.16 1.59,0.57 2.09,0.62l0.38 -0.81 -3.76 -1.26c-0.23,0.2 -0.49,0.54 -0.65,0.78z"/>
   <path class="fil0" d="M15.57 13.28c0.07,0.08 0.01,0.04 0.13,0.11l3.15 1.08c0.2,-0.24 0.36,-0.46 0.47,-0.71 -0.28,-0.17 -2.81,-1.08 -3.14,-1.1l-0.61 0.62z"/>
   <path class="fil0" d="M17.78 11.28c0.21,0.18 2.4,1.01 2.71,1 0.24,-0.24 0.34,-0.34 0.49,-0.63 -3.03,-1.17 -2.22,-1.12 -3.2,-0.37z"/>
   <path class="fil0" d="M20.03 9.54c0.35,0.19 1.85,0.83 2.21,0.88 0.1,-0.15 0.09,-0.12 0.21,-0.25l0.24 -0.32c-0.29,-0.18 -1.83,-0.92 -2.12,-0.78l-0.54 0.47z"/>
   <polygon class="fil1" points="29.12,21.9 26.07,21.9 26.07,19.07 35.54,19.07 35.54,21.9 32.49,21.9 32.49,30.44 29.12,30.44 "/>
   <path id="1" class="fil1" d="M37.9 30.68c-1.08,0 -1.89,-0.3 -2.44,-0.91 -0.54,-0.61 -0.81,-1.41 -0.81,-2.41l0 -4.73 3.25 0 0 4.34c0,0.79 0.35,1.19 1.04,1.19 0.32,0 0.6,-0.08 0.85,-0.23 0.25,-0.15 0.45,-0.37 0.6,-0.65l0 -4.65 3.27 0 0 7.81 -3.16 0 0 -0.75c-0.32,0.32 -0.71,0.57 -1.17,0.74 -0.45,0.17 -0.93,0.25 -1.43,0.25z"/>
   <path id="2" class="fil1" d="M44.96 22.63l3.13 0 0 0.85c0.31,-0.32 0.73,-0.57 1.26,-0.75 0.54,-0.18 1.13,-0.28 1.77,-0.28l0 2.52c-0.68,0 -1.29,0.1 -1.82,0.28 -0.53,0.18 -0.9,0.46 -1.09,0.81l0 4.38 -3.25 0 0 -7.81z"/>
   <path id="3" class="fil1" d="M51.77 22.63l3.14 0 0 0.77c0.33,-0.33 0.73,-0.58 1.18,-0.75 0.46,-0.17 0.93,-0.26 1.43,-0.26 1.12,0 1.94,0.28 2.47,0.85 0.52,0.57 0.78,1.35 0.78,2.35l0 4.85 -3.26 0 0 -4.39c0,-0.37 -0.08,-0.65 -0.24,-0.84 -0.16,-0.19 -0.41,-0.28 -0.75,-0.28 -0.65,0 -1.15,0.29 -1.5,0.87l0 4.64 -3.25 0 0 -7.81z"/>
   <path id="4" class="fil1" d="M71.42 19.07l3.24 0 4.53 11.37 -3.44 0 -0.85 -2.17 -3.72 0 -0.86 2.17 -3.45 0 4.55 -11.37zm2.7 6.65l-1.09 -3.18 -1.09 3.18 2.18 0z"/>
   <path id="5" class="fil1" d="M80.17 22.63l3.14 0 0 0.72c0.32,-0.31 0.71,-0.54 1.17,-0.71 0.45,-0.17 0.93,-0.25 1.44,-0.25 0.83,0 1.55,0.17 2.18,0.51 0.63,0.34 1.12,0.83 1.46,1.46 0.34,0.62 0.51,1.35 0.51,2.17 0,0.82 -0.17,1.54 -0.51,2.17 -0.34,0.63 -0.83,1.11 -1.46,1.46 -0.63,0.35 -1.35,0.52 -2.18,0.52 -0.48,0 -0.95,-0.07 -1.39,-0.22 -0.45,-0.15 -0.82,-0.34 -1.11,-0.58l0 4.12 -3.25 0 0 -11.37zm4.88 5.53c0.51,0 0.91,-0.14 1.21,-0.43 0.29,-0.29 0.44,-0.69 0.44,-1.21 0,-0.51 -0.15,-0.91 -0.44,-1.19 -0.3,-0.28 -0.7,-0.42 -1.21,-0.42 -0.37,0 -0.7,0.09 -0.99,0.27 -0.29,0.18 -0.5,0.42 -0.64,0.72l0 1.27c0.14,0.3 0.35,0.54 0.64,0.72 0.29,0.18 0.62,0.27 0.99,0.27z"/>
   <path id="6" class="fil1" d="M91.04 22.63l3.14 0 0 0.72c0.33,-0.31 0.72,-0.54 1.17,-0.71 0.46,-0.17 0.94,-0.25 1.45,-0.25 0.82,0 1.55,0.17 2.18,0.51 0.63,0.34 1.11,0.83 1.45,1.46 0.34,0.62 0.51,1.35 0.51,2.17 0,0.82 -0.17,1.54 -0.51,2.17 -0.34,0.63 -0.82,1.11 -1.45,1.46 -0.63,0.35 -1.36,0.52 -2.18,0.52 -0.49,0 -0.95,-0.07 -1.4,-0.22 -0.44,-0.15 -0.81,-0.34 -1.1,-0.58l0 4.12 -3.26 0 0 -11.37zm4.88 5.53c0.51,0 0.91,-0.14 1.21,-0.43 0.3,-0.29 0.45,-0.69 0.45,-1.21 0,-0.51 -0.15,-0.91 -0.45,-1.19 -0.3,-0.28 -0.7,-0.42 -1.21,-0.42 -0.37,0 -0.7,0.09 -0.98,0.27 -0.29,0.18 -0.5,0.42 -0.64,0.72l0 1.27c0.14,0.3 0.35,0.54 0.64,0.72 0.28,0.18 0.61,0.27 0.98,0.27z"/>
   <path class="fil1" d="M130.19 31.16l0 -9.25 3.46 0c0.79,0 1.46,0.13 2.02,0.38 0.57,0.25 1,0.61 1.3,1.08 0.31,0.47 0.46,1.04 0.46,1.71 0,0.65 -0.15,1.21 -0.46,1.69 -0.3,0.47 -0.73,0.83 -1.3,1.09 -0.56,0.25 -1.23,0.38 -2.02,0.38l-2.92 0 0.44 -0.46 0 3.38 -0.98 0zm0.98 -3.3l-0.44 -0.48 2.9 0c0.92,0 1.62,-0.2 2.1,-0.6 0.48,-0.4 0.72,-0.97 0.72,-1.7 0,-0.74 -0.24,-1.31 -0.72,-1.72 -0.48,-0.4 -1.18,-0.6 -2.1,-0.6l-2.9 0 0.44 -0.47 0 5.57z"/>
   <polygon id="1" class="fil1" points="139.54,31.16 139.54,21.91 140.52,21.91 140.52,31.16 "/>
   <polygon id="2" class="fil1" points="145.33,31.16 145.33,22.76 142.08,22.76 142.08,21.91 149.56,21.91 149.56,22.76 146.31,22.76 146.31,31.16 "/>
   <line class="fil2 str1" x1="115.93" y1="0" x2="115.93" y2= "53.07" />
  </g>
 </g>
</svg>
