<?xml version="1.0" encoding="UTF-8"?>
<!DOCTYPE svg PUBLIC "-//W3C//DTD SVG 1.1//EN" "http://www.w3.org/Graphics/SVG/1.1/DTD/svg11.dtd">
<!-- Creator: CorelDRAW 2020 (64 Bit) -->
<svg xmlns="http://www.w3.org/2000/svg" xml:space="preserve" width="1065px" height="1487px" version="1.1" style="shape-rendering:geometricPrecision; text-rendering:geometricPrecision; image-rendering:optimizeQuality; fill-rule:evenodd; clip-rule:evenodd"
viewBox="0 0 28.4 39.65"
 xmlns:xlink="http://www.w3.org/1999/xlink"
 xmlns:xodm="http://www.corel.com/coreldraw/odm/2003">
 <defs>
  <style type="text/css">
   <![CDATA[
    .str0 {stroke:#04A4C0;stroke-width:0.02;stroke-miterlimit:22.9256}
    .fil0 {fill:#04A4C0}
   ]]>
  </style>
 </defs>
 <g id="Camada_x0020_1">
  <metadata id="CorelCorpID_0Corel-Layer"/>
  <g id="_1905646247808">
   <path class="fil0" d="M8.39 39.65l-0.71 -2.02 0.02 -0.04c-0.25,-0.24 -0.49,-1.25 -0.6,-1.68 -1.14,-3.36 -1.62,-8.32 -1.11,-12.12 0.8,-6.02 2.94,-9.97 6.28,-14.29 0.7,-0.92 2.56,-2.88 3.35,-3.57l1.79 -1.62c0.66,-0.52 1.28,-1 1.97,-1.53 0.66,-0.49 1.29,-0.94 2,-1.41 0.62,-0.41 1.59,-0.93 2.08,-1.36 -0.65,-0.09 -1.2,0.58 -1.72,0.81 -0.58,0.25 -0.75,-0.69 -1.76,0.32l0.63 0.3c-0.14,0.2 0,0.04 -0.19,0.21l-1.4 0.93c-0.6,0.19 -0.59,-0.76 -1.77,0.39l0.75 0.31c-0.26,0.3 -0.51,0.44 -0.79,0.66 -0.29,0.22 -0.52,0.46 -0.8,0.64 -0.51,0.03 -0.8,-0.31 -1.1,-0.2 -0.09,0.04 -0.25,0.19 -0.37,0.28 -0.02,0.02 -0.19,0.14 -0.19,0.15l-0.22 0.29 0.87 0.27c-0.09,0.13 -1.6,1.53 -1.63,1.54 -0.7,0.23 -0.76,-1.01 -2,0.55 0.15,0.06 0.36,0.14 0.54,0.19 0.43,0.14 0.35,0.08 0.51,0.25 -0.46,0.45 -1.24,1.23 -1.55,1.75l-1.36 -0.35c-0.25,0.21 -0.67,0.67 -0.89,0.93 0.19,0.14 0.39,0.18 0.64,0.24 0.23,0.06 0.48,0.11 0.67,0.25 -0.19,0.33 -0.49,0.7 -0.73,1.03 -0.24,0.33 -0.51,0.8 -0.77,1.06l-1.69 -0.41c-0.19,0.45 -0.55,0.72 -0.74,1.15 0.45,0.27 1.24,0.22 1.69,0.5l-1.28 2.5 -2.15 -0.45 -0.74 1.36 2.24 0.49 -0.97 2.98 -2.69 -0.41c-0.23,0.34 -0.55,1.21 -0.6,1.66l2.88 0.43c0.02,0.21 -0.38,2.59 -0.41,3.58l-3.59 -0.4 -0.38 2 3.89 0.38c0.15,0.95 0.09,2.18 0.22,3.18 0.25,1.9 1.36,7.24 2.15,8.27l1.73 0.03z"/>
   <path class="fil0" d="M21.94 35.87c0.41,0.54 2.08,2.99 2.36,3.61 0.51,0.02 0.7,-0.07 1.79,-0.16 -0.53,-0.25 -3.47,-5.07 -3.55,-5.26 -0.35,-0.47 -0.77,-1.43 -1.1,-2.04 -0.39,-0.74 -0.64,-1.45 -0.98,-2.18l3.82 0.34c-0.14,-0.41 -0.39,-0.73 -0.59,-1.08 -0.33,-0.6 -0.17,-0.63 -0.96,-0.71 -0.96,-0.1 -2,-0.2 -2.96,-0.37 -0.33,-0.94 -0.76,-2.21 -0.91,-3.24l2.92 0.44c-0.49,-2.44 -1.14,-1.39 -3.21,-2 -0.22,-0.48 -0.32,-2.22 -0.36,-2.86l2.27 0.44 -0.17 -1.14c-0.07,-0.19 0,-0.07 -0.09,-0.18l-2.05 -0.49 0.11 -2.49 1.79 0.4 0.03 -1.18 -1.62 -0.43 0.42 -2.21 1.45 0.37 0.16 -1.08 -1.25 -0.34c0.01,-0.52 0.47,-1.43 0.6,-1.95l1.23 0.34 0.29 -0.97 -1.05 -0.31c0.08,-0.38 0.61,-1.43 0.83,-1.7l0.98 0.29c0.16,-0.34 0.31,-0.52 0.38,-0.86l-0.87 -0.3c0.22,-0.58 0.68,-1.03 0.91,-1.52l0.95 0.31c0.12,-0.34 0.27,-0.44 0.4,-0.75l-0.76 -0.31c0.17,-0.38 0.75,-1.07 1.02,-1.37l0.83 0.33c0.15,-0.26 0.35,-0.39 0.46,-0.73 -0.28,-0.05 -0.51,-0.11 -0.7,-0.31 0.26,-0.28 0.95,-0.98 1.01,-1.25 -0.57,0.04 -2.64,2.63 -2.97,3.06 -2.83,3.69 -4.82,7.61 -5.49,12.6 -0.72,5.35 0.47,10.52 2.54,15.22 0.66,1.51 1.4,2.67 2.09,4.02z"/>
   <path class="fil0" d="M7.76 34.93c13,0.49 0,0 13,0.49l-1.12 -2.03 -12.37 -0.76c0.06,0.55 0.26,1.82 0.49,2.3z"/>
   <path class="fil0 str0" d="M17.85 29.53l-0.57 -1.73c-0.05,0 -0.08,-0.04 -0.1,-0.02l-2.44 -0.33c-1.1,-0.13 -7.31,-0.93 -7.83,-0.9 -0.08,0.27 -0.12,1.36 -0.06,1.67 0.07,0.38 0.43,0.25 1.39,0.35 1.05,0.11 2.11,0.23 3.17,0.32 2.14,0.2 4.3,0.45 6.44,0.64z"/>
   <path class="fil0" d="M7.22 22.98l9.18 1.41 -0.2 -1.54c-0.85,-0.23 -8.09,-1.48 -8.68,-1.44l-0.3 1.57z"/>
   <path class="fil0" d="M0 32.25l0.06 2.4 5.31 0.16 -0.37 -2.44c-5,-0.12 -2.48,-0.11 -5,-0.12z"/>
   <path class="fil0" d="M8.38 18.38c1.3,0.26 2.58,0.53 3.84,0.78 0.86,0.17 3.14,0.73 3.83,0.71l0.03 -1.34 -7.21 -1.52 -0.49 1.37z"/>
   <path class="fil0" d="M22.62 33.95c0.02,0.01 0.05,0.01 0.06,0.04l0.53 0.75c0.77,1.13 0.23,0.76 2.95,0.9l1.99 0.06c0.25,-0.05 0.1,0.03 0.25,-0.11 -0.33,-0.24 -0.61,-0.68 -0.91,-1.04 -0.47,-0.56 -0.37,-0.73 -1.25,-0.77 -1.25,-0.07 -2.5,-0.19 -3.75,-0.23l0.13 0.4z"/>
   <path class="fil0" d="M10.07 14.49l6.32 1.52 0.24 -1.21 -5.95 -1.5c-0.2,0.41 -0.48,0.76 -0.61,1.19z"/>
   <path class="fil0" d="M12.08 11.14c0.92,0.24 4.54,1.42 5.23,1.41 0.11,-0.35 0.27,-0.62 0.28,-1l-4.87 -1.44c-0.19,0.38 -0.48,0.64 -0.64,1.03z"/>
   <path class="fil0" d="M14.3 8.22c0.02,0.02 0.05,0.01 0.06,0.04 0.01,0.03 0.04,0.03 0.06,0.03l1.94 0.64c0.54,0.18 1.71,0.61 2.23,0.66l0.41 -0.86 -4 -1.34c-0.25,0.21 -0.53,0.57 -0.7,0.83z"/>
   <path class="fil0" d="M16.58 5.71c0.08,0.09 0.01,0.04 0.14,0.11l3.35 1.15c0.22,-0.25 0.39,-0.49 0.5,-0.75 -0.29,-0.18 -2.98,-1.15 -3.34,-1.17l-0.65 0.66z"/>
   <path class="fil0" d="M18.93 3.58c0.23,0.19 2.56,1.07 2.89,1.06 0.26,-0.26 0.36,-0.36 0.52,-0.67 -3.22,-1.24 -2.36,-1.2 -3.41,-0.39z"/>
   <path class="fil0" d="M21.33 1.72c0.37,0.21 1.98,0.89 2.35,0.94 0.11,-0.16 0.1,-0.12 0.23,-0.26l0.25 -0.34c-0.3,-0.19 -1.94,-0.98 -2.25,-0.84l-0.58 0.5z"/>
  </g>
 </g>
</svg>
