<?xml version="1.0" encoding="UTF-8"?>
<!DOCTYPE svg PUBLIC "-//W3C//DTD SVG 1.1//EN" "http://www.w3.org/Graphics/SVG/1.1/DTD/svg11.dtd">
<!-- Creator: CorelDRAW 2020 (64 Bit) -->
<svg xmlns="http://www.w3.org/2000/svg" xml:space="preserve" width="440px" height="100px" version="1.1" style="shape-rendering:geometricPrecision; text-rendering:geometricPrecision; image-rendering:optimizeQuality; fill-rule:evenodd; clip-rule:evenodd"
viewBox="0 0 469.86 106.71"
 xmlns:xlink="http://www.w3.org/1999/xlink"
 xmlns:xodm="http://www.corel.com/coreldraw/odm/2003">
 <defs>
  <style type="text/css">
   <![CDATA[
    .fil0 {fill:#003764}
   ]]>
  </style>
 </defs>
 <g id="Camada_x0020_1">
  <metadata id="CorelCorpID_0Corel-Layer"/>
  <g id="_2472816044592">
   <path class="fil0" d="M221.38 16.35l0 -14.06 -24.6 0 0 101.91 26.71 0 0 -54.82c0,-10.99 5.42,-28.11 16.16,-28.11 11.35,0 18.28,0.98 18.28,21.08l0 61.85 26.7 0 0 -51.3c0,-13.89 4.41,-31.63 17.57,-31.63 6.04,0 10.38,-0.8 14.06,5.61 1.68,2.93 2.81,7.31 2.81,11.96l0 65.36 26.7 0 0 -69.58c0,-9.49 -2.99,-18.3 -7.11,-23.81 -10.28,-13.75 -32.08,-13.16 -45.65,-5.05 -3.15,1.88 -3.56,2.63 -6.1,5.14 -5.84,5.76 -1.82,5.09 -5.79,6.15 -2.14,-9.18 -14.79,-16.86 -26.01,-16.86 -25.32,0 -26.45,10.83 -33.73,16.16z"/>
   <path class="fil0" d="M76.6 71.87c0,8.81 3.59,16.86 7.15,22.37 3.59,5.56 10.68,10.11 18.56,11.67 12.07,2.38 24.65,-0.65 34.24,-7.83 3.29,-2.46 5.42,-5.36 8.23,-7.23l0 13.35 25.3 0 0 -101.91 -26.71 0 0 48.5c0,40.99 -28.95,39.42 -36.01,28.98 -2.73,-4.04 -4.05,-9.82 -4.05,-16.33l0 -61.15 -26.71 0 0 69.58z"/>
   <path class="fil0" d="M23.89 24.08l0 -21.79 -23.89 0 0 101.91 27.41 0c0,-14.03 0.42,-25.8 -0.69,-39.42 -0.42,-5.14 1.69,-21.99 4.42,-27.83 6.28,-13.44 17.74,-12.05 29.3,-9.36l0 -26.7c-13.04,-3.04 -26.12,2.8 -32.56,14.53l-3.77 8.18c-0.04,0.1 -0.12,0.33 -0.22,0.48z"/>
   <path class="fil0" d="M401.3 3.7c6.52,0 11.51,1.35 16.61,3.06 22.15,7.46 32.24,37.24 19.23,56.68 0.71,3.06 8.38,14.34 10.54,17.57 9.79,-5.18 17.07,-10.18 20.81,-22.76 3.88,-13.05 -1.19,-25.68 -6.6,-34.32 -10.48,-16.74 -32.51,-26.23 -51.89,-22.77l-8.7 2.54z"/>
   <path class="fil0" d="M376.7 67.65c0,36.14 49.99,51.61 81.36,18.11 1.97,-2.1 6.49,-8.79 7.19,-11.78 -8.26,5.53 -8.64,13.35 -34.44,13.35 -8.2,0 -17.65,-5.45 -21.98,-9.65 -6.04,-5.86 -9.55,-11.11 -11.75,-20.57 -4.1,-0.95 -14.2,-3.51 -17.57,-3.51 -0.4,4.8 -2.81,7.34 -2.81,14.05z"/>
   <path class="fil0" d="M366.86 50.08c0,8.37 0.75,20.3 6.32,26.71 -0.9,-10.88 -2.03,-13 2.9,-25.22 7.52,-18.64 33.16,-28.61 51.22,-19.06 2.54,-1.7 4.76,-4.1 7.03,-5.62 -0.7,-1.32 -1.07,-2.37 -2,-3.62 -0.87,-1.17 -1.43,-1.72 -2.51,-3.11 -11.74,-15.11 -40.17,-16.27 -53.23,1.7 -4.92,6.76 -9.73,16.77 -9.73,28.22z"/>
  </g>
 </g>
</svg>
